<svg viewBox="65.1 122.1 269.9 156.4" xmlns="http://www.w3.org/2000/svg" width="540" height="313"><g><g><path d="M71.05 191.71L72.72 187.5L77.49 183.93L170.83 137.26L177.97 134.87L186.39 134.04L194.81 134.87L201.94 137.26L322.51 197.54L327.28 201.11L328.95 205.32L328.95 214.84L327.28 219.05L322.51 222.62L229.17 269.29L222.03 271.68L213.61 272.51L205.19 271.68L198.06 269.29L77.49 209.01L72.72 205.44L71.05 201.23Z" fill="#0d1117" fill-opacity="1" stroke="rgb(91, 93, 100)" stroke-opacity="1" stroke-width="0.9px" stroke-linecap="round" stroke-linejoin="round" opacity="1"></path><path d="M322.9 205.32L321.69 208.37L318.23 210.96L224.89 257.63L219.72 259.35L213.61 259.96L207.51 259.35L202.33 257.63L81.77 197.35L78.31 194.76L77.1 191.71" fill="none" fill-opacity="1" stroke="rgb(41, 41, 45)" stroke-opacity="1" stroke-width="0.9px" stroke-linecap="round" stroke-linejoin="round" opacity="1"></path></g><path d="M223.33 252.96L220.49 254.05L217.17 254.74L213.61 254.97L210.05 254.74L206.74 254.05L203.89 252.96L91.11 196.57L88.92 195.14L87.55 193.49L87.08 191.71L87.55 189.93L88.92 188.27L91.11 186.84L176.67 144.06L179.51 142.97L182.83 142.29L186.39 142.05L189.95 142.29L193.26 142.97L196.11 144.06L308.89 200.46L311.08 201.88L312.45 203.54L312.92 205.32L312.45 207.1L311.08 208.76L308.89 210.18Z" fill="none" fill-opacity="1" stroke="rgb(41, 41, 45)" stroke-opacity="1" stroke-width="0.9px" stroke-linecap="round" stroke-linejoin="round" opacity="1"></path><g><path d="" fill="none" fill-opacity="1" stroke="rgb(62, 62, 68)" stroke-opacity="1" stroke-width="0.9px" stroke-dasharray="1px, 3px" stroke-linecap="round" stroke-linejoin="round" opacity="1"></path><path d="" fill="none" fill-opacity="1" stroke="rgb(62, 62, 68)" stroke-opacity="1" stroke-width="0.9px" stroke-dasharray="1px, 3px" stroke-linecap="round" stroke-linejoin="round" opacity="1"></path><g><path d="M135.33 144.38L135.39 142.98L136.51 141.71L153.55 129.54L155.57 128.58L158.17 128.07L160.95 128.1L163.51 128.66L187.84 137.18L189.77 138.19L190.78 139.49L190.78 177.59L190.72 178.99L189.59 180.27L172.56 192.43L170.54 193.4L167.94 193.9L165.15 193.87L162.6 193.31L138.27 184.79L136.34 183.78L135.33 182.48Z" fill="#0d1117" fill-opacity="1" stroke="rgb(91, 93, 100)" stroke-opacity="1" stroke-width="0.9px" stroke-linecap="round" stroke-linejoin="round" opacity="1"></path><path d="M188.03 140.59L187.34 141.37L170.3 153.54L169.06 154.13L167.46 154.44L165.75 154.42L164.18 154.08L139.85 145.56L138.66 144.94L138.04 144.14" fill="none" fill-opacity="1" stroke="rgb(41, 41, 45)" stroke-opacity="1" stroke-width="0.9px" stroke-linecap="round" stroke-linejoin="round" opacity="1"></path></g><ellipse rx="3.44" ry="1.72" cx="160.08" cy="133.51" fill="rgb(91, 93, 100)" fill-opacity="1" stroke-opacity="1" stroke-width="0.9px" stroke-linecap="round" stroke-linejoin="round" opacity="1"></ellipse><ellipse rx="3.44" ry="1.72" cx="179.91" cy="140.45" fill="rgb(91, 93, 100)" fill-opacity="1" stroke-opacity="1" stroke-width="0.9px" stroke-linecap="round" stroke-linejoin="round" opacity="1"></ellipse><ellipse rx="3.44" ry="1.72" cx="163.05" cy="141.93" fill="rgb(91, 93, 100)" fill-opacity="1" stroke-opacity="1" stroke-width="0.9px" stroke-linecap="round" stroke-linejoin="round" opacity="1"></ellipse><ellipse rx="3.44" ry="1.72" cx="146.2" cy="143.42" fill="rgb(91, 93, 100)" fill-opacity="1" stroke-opacity="1" stroke-width="0.9px" stroke-linecap="round" stroke-linejoin="round" opacity="1"></ellipse><ellipse rx="3.44" ry="1.72" cx="166.03" cy="150.36" fill="rgb(91, 93, 100)" fill-opacity="1" stroke-opacity="1" stroke-width="0.9px" stroke-linecap="round" stroke-linejoin="round" opacity="1"></ellipse></g><g><path d="M214.5 206.79L214.5 185.35M267.17 215.52L267.17 194.08M232.11 224.32L232.11 202.88" fill="none" fill-opacity="1" stroke="rgb(62, 62, 68)" stroke-opacity="1" stroke-width="0.9px" stroke-dasharray="1px, 3px" stroke-linecap="round" stroke-linejoin="round" opacity="1"></path><path d="M234.86 224.08L232.11 224.32L229.39 224.01L227.11 223.21L225.62 222.03L214.97 208.16L214.5 206.79L215.12 205.43L216.73 204.29L219.09 203.54L246.81 198.22L249.56 197.99L252.29 198.29L254.56 199.1L256.05 200.28L266.7 214.14L267.17 215.52L266.55 216.88L264.94 218.02L262.58 218.76Z" fill="none" fill-opacity="1" stroke="rgb(62, 62, 68)" stroke-opacity="1" stroke-width="0.9px" stroke-dasharray="1px, 3px" stroke-linecap="round" stroke-linejoin="round" opacity="1"></path><g><path d="M214.5 147.25L215.12 145.89L216.73 144.75L219.09 144L246.81 138.68L249.56 138.45L252.29 138.75L254.56 139.56L256.05 140.74L266.7 154.6L267.17 155.98L267.17 194.08L266.55 195.44L264.94 196.58L262.58 197.33L234.86 202.65L232.11 202.88L229.39 202.58L227.11 201.77L225.62 200.59L214.97 186.73L214.5 185.35Z" fill="#0d1117" fill-opacity="1" stroke="rgb(91, 93, 100)" stroke-opacity="1" stroke-width="0.9px" stroke-linecap="round" stroke-linejoin="round" opacity="1"></path><path d="M264.42 155.94L264.04 156.78L263.05 157.48L261.6 157.94L233.87 163.26L232.18 163.4L230.5 163.21L229.1 162.72L228.19 161.99L217.54 148.13" fill="none" fill-opacity="1" stroke="rgb(41, 41, 45)" stroke-opacity="1" stroke-width="0.9px" stroke-linecap="round" stroke-linejoin="round" opacity="1"></path></g><ellipse rx="3.44" ry="1.72" cx="247.8" cy="143.8" fill="rgb(208, 214, 224)" fill-opacity="1" stroke-opacity="1" stroke-width="0.9px" stroke-linecap="round" stroke-linejoin="round" opacity="1"></ellipse><ellipse rx="3.44" ry="1.72" cx="240.84" cy="151.61" fill="rgb(208, 214, 224)" fill-opacity="1" stroke-opacity="1" stroke-width="0.9px" stroke-linecap="round" stroke-linejoin="round" opacity="1"></ellipse><ellipse rx="3.44" ry="1.72" cx="233.88" cy="159.43" fill="rgb(208, 214, 224)" fill-opacity="1" stroke-opacity="1" stroke-width="0.9px" stroke-linecap="round" stroke-linejoin="round" opacity="1"></ellipse></g></g></svg>